<svg xmlns="http://www.w3.org/2000/svg" width="100%" height="100%" viewBox="0 0 800 1300">
  <defs>
    <linearGradient id="blueGradient" x1="0%" y1="0%" x2="100%" y2="100%">
      <stop offset="0%" style="stop-color:#00A2FF; stop-opacity:1"/>
      <stop offset="100%" style="stop-color:#0044CC; stop-opacity:1"/>
    </linearGradient>
    <radialGradient id="lightEffect" cx="50%" cy="50%" r="50%">
      <stop offset="0%" style="stop-color:#FFFFFF; stop-opacity:0.8"/>
      <stop offset="100%" style="stop-color:#00A2FF; stop-opacity:0"/>
    </radialGradient>
    <linearGradient id="cubeGradient" x1="0%" y1="0%" x2="100%" y2="100%">
      <stop offset="0%" style="stop-color:#0044CC; stop-opacity:1"/>
      <stop offset="100%" style="stop-color:#001166; stop-opacity:1"/>
    </linearGradient>
  </defs>

  <!-- Bagian utama berbentuk kristal -->
  <path fill="url(#blueGradient)" d="M400,0 C300,250 100,550 400,900 C700,550 500,250 400,0 Z"/>
  
  <!-- Efek refleksi -->
  <path fill="url(#lightEffect)" opacity="0.6" d="M400,50 C320,270 150,550 400,850 C650,550 480,270 400,50 Z"/>
  
  <!-- Bagian bawah diubah menjadi kubus 3D -->
  <!-- Sisi kiri kubus -->
  <polygon fill="url(#cubeGradient)" points="400,920 250,1100 400,1300 550,1100"/>
  <!-- Sisi kanan kubus -->
  <polygon fill="#002288" points="400,920 550,1100 400,1300 250,1100"/>
  <!-- Sisi atas kubus -->
  <polygon fill="#0055FF" points="400,920 250,1100 550,1100"/>

  <!-- Efek highlight di sisi kiri -->
  <polygon fill="rgba(255,255,255,0.2)" points="400,920 250,1100 400,1300" opacity="0.7"/>
  <!-- Efek shadow di sisi kanan -->
  <polygon fill="rgba(0,0,0,0.2)" points="400,920 550,1100 400,1300" opacity="0.5"/>
</svg>
