<svg xmlns="http://www.w3.org/2000/svg" width="100%" height="100%" viewBox="0 0 800 1300">
  <defs>
    <!-- Gradasi Kristal -->
    <linearGradient id="blueGradient" x1="0%" y1="0%" x2="100%" y2="100%">
      <stop offset="0%" style="stop-color:#00A2FF; stop-opacity:1"/>
      <stop offset="100%" style="stop-color:#0044CC; stop-opacity:1"/>
    </linearGradient>

    <!-- Efek Cahaya -->
    <radialGradient id="lightEffect" cx="50%" cy="50%" r="50%">
      <stop offset="0%" style="stop-color:#FFFFFF; stop-opacity:0.8"/>
      <stop offset="100%" style="stop-color:#00A2FF; stop-opacity:0"/>
    </radialGradient>

    <!-- Gradasi Kubus 3D -->
    <linearGradient id="cubeGradient" x1="0%" y1="0%" x2="100%" y2="100%">
      <stop offset="0%" style="stop-color:#0044CC; stop-opacity:1"/>
      <stop offset="100%" style="stop-color:#001166; stop-opacity:1"/>
    </linearGradient>
  </defs>

  <!-- Grup utama dengan animasi rotasi seperti bumi -->
  <g transform="translate(400, 450)">
    <g id="mainShape">
      <!-- Kristal dengan rotasi -->
      <path fill="url(#blueGradient)" d="M0,-450 C-100,-200 -300,100 0,450 C300,100 100,-200 0,-450 Z">
        <animateTransform attributeName="transform" type="rotate" from="0 0 0" to="360 0 0" dur="6s" repeatCount="indefinite"/>
      </path>

      <!-- Efek refleksi -->
      <path fill="url(#lightEffect)" opacity="0.6" d="M0,-400 C-80,-180 -250,100 0,400 C250,100 80,-180 0,-400 Z">
        <animateTransform attributeName="transform" type="translate" values="-20,0; 20,0; -20,0" dur="3s" repeatCount="indefinite"/>
      </path>
    </g>
  </g>

  <!-- Bagian bawah kubus 3D -->
  <!-- Sisi kiri kubus -->
  <polygon fill="url(#cubeGradient)" points="400,920 250,1100 400,1300 550,1100"/>
  <!-- Sisi kanan kubus -->
  <polygon fill="#002288" points="400,920 550,1100 400,1300 250,1100"/>
  <!-- Sisi atas kubus -->
  <polygon fill="#0055FF" points="400,920 250,1100 550,1100"/>

  <!-- Efek highlight di sisi kiri -->
  <polygon fill="rgba(255,255,255,0.2)" points="400,920 250,1100 400,1300" opacity="0.7"/>
  <!-- Efek shadow di sisi kanan -->
  <polygon fill="rgba(0,0,0,0.2)" points="400,920 550,1100 400,1300" opacity="0.5"/>
</svg>
