<svg viewBox="0 0 1024 682" xmlns="http://www.w3.org/2000/svg">
    <!-- Background Merah -->
    <defs>
        <linearGradient id="gradient" x1="0%" y1="0%" x2="100%" y2="100%">
            <stop offset="0%" style="stop-color:#D50000; stop-opacity:1"/>
            <stop offset="100%" style="stop-color:#FF3333; stop-opacity:1"/>
        </linearGradient>
        <filter id="shadow" x="-20%" y="-20%" width="140%" height="140%">
            <feDropShadow dx="5" dy="5" stdDeviation="5" flood-color="rgba(0, 0, 0, 0.5)"/>
        </filter>
    </defs>
    
    <!-- Bendera Berkibar -->
    <path d="M0 341 Q256 512 512 341 T1024 341 V682 H0 Z" fill="url(#gradient)"/>

    <!-- Bunga Bauhinia -->
    <g transform="translate(512,341)" filter="url(#shadow)">
        <!-- 5 Kelopak -->
        <g transform="rotate(0)">
            <path d="M0,-120 C-50,-100 -80,-60 -60,-30 C-30,-10 20,0 50,-50 C30,-90 20,-110 0,-120 Z" fill="white"/>
        </g>
        <g transform="rotate(72)">
            <path d="M0,-120 C-50,-100 -80,-60 -60,-30 C-30,-10 20,0 50,-50 C30,-90 20,-110 0,-120 Z" fill="white"/>
        </g>
        <g transform="rotate(144)">
            <path d="M0,-120 C-50,-100 -80,-60 -60,-30 C-30,-10 20,0 50,-50 C30,-90 20,-110 0,-120 Z" fill="white"/>
        </g>
        <g transform="rotate(216)">
            <path d="M0,-120 C-50,-100 -80,-60 -60,-30 C-30,-10 20,0 50,-50 C30,-90 20,-110 0,-120 Z" fill="white"/>
        </g>
        <g transform="rotate(288)">
            <path d="M0,-120 C-50,-100 -80,-60 -60,-30 C-30,-10 20,0 50,-50 C30,-90 20,-110 0,-120 Z" fill="white"/>
        </g>

        <!-- Bintang pada Setiap Kelopak -->
        <circle cx="0" cy="-80" r="5" fill="#ff3333"/>
        <circle cx="-75" cy="-50" r="5" fill="#ff3333"/>
        <circle cx="-50" cy="50" r="5" fill="#ff3333"/>
        <circle cx="50" cy="50" r="5" fill="#ff3333"/>
        <circle cx="75" cy="-50" r="5" fill="#ff3333"/>
    </g>
</svg>
