<svg xmlns="http://www.w3.org/2000/svg" viewBox="0 0 540 450">
  <defs>
    <!-- Gradasi untuk elemen utama -->
    <linearGradient id="gradient1" x1="0%" y1="0%" x2="100%" y2="100%">
      <stop offset="0%" style="stop-color:#FF7B00; stop-opacity:1"/>
      <stop offset="100%" style="stop-color:#D9006C; stop-opacity:1"/>
    </linearGradient>
    
    <linearGradient id="gradient2" x1="0%" y1="0%" x2="100%" y2="100%">
      <stop offset="0%" style="stop-color:#6C00D9; stop-opacity:1"/>
      <stop offset="100%" style="stop-color:#002BFF; stop-opacity:1"/>
    </linearGradient>
  </defs>

  <!-- Elemen Atas -->
  <path fill="url(#gradient1)" d="M450,0h90L350,160c-60,60-160,60-220,0L0,0H90L220,130a100,100,0,0,0,140,0Z">
    <animateTransform attributeName="transform" type="scale" values="1 1; 1.05 1.05; 1 1" dur="1.2s" repeatCount="indefinite"/>
  </path>

  <!-- Elemen Bawah -->
  <path fill="url(#gradient2)" d="M90,450H0L170,290c60-60,160-60,220,0L540,450H450L320,320a100,100,0,0,0-140,0Z">
    <animateTransform attributeName="transform" type="scale" values="1 1; 1.05 1.05; 1 1" dur="1.2s" repeatCount="indefinite"/>
  </path>
  
  <!-- Efek 3D -->
  <g opacity="0.3">
    <polygon fill="#000000" points="90,0 220,130 210,150 70,20"/>
    <polygon fill="#000000" points="450,0 320,130 330,150 470,20"/>
    <polygon fill="#000000" points="90,450 220,320 210,300 70,430"/>
    <polygon fill="#000000" points="450,450 320,320 330,300 470,430"/>
  </g>
</svg>
